<svg xmlns="http://www.w3.org/2000/svg" viewBox="-7.0 -765 2668.0 817" width="2668.0" height="817" role="img" aria-label="Muriel">
  <path d="M119 -114 129 -602 154 -600 144 -114Q143 -62 162.5 -37.0Q182 -12 228 -12Q231 -12 231.0 -6.0Q231 0 228 0Q206 0 183.0 -1.0Q160 -2 131 -2Q104 -2 80.0 -1.0Q56 0 35 0Q33 0 33.0 -6.0Q33 -12 35 -12Q77 -12 97.5 -37.0Q118 -62 119 -114ZM819 -12Q821 -12 821.0 -6.0Q821 0 819 0Q794 0 763.0 -1.0Q732 -2 697 -2Q664 -2 635.0 -1.0Q606 0 583 0Q580 0 580.0 -6.0Q580 -12 583 -12Q632 -12 646.0 -25.0Q660 -38 657 -81L637 -552L676 -608L417 -7Q416 -3 409.5 -3.0Q403 -3 401 -7L140 -542Q105 -613 42 -613Q40 -613 40.0 -619.0Q40 -625 42 -625Q60 -625 79.5 -624.0Q99 -623 113 -623Q132 -623 147.5 -624.0Q163 -625 171 -625Q185 -625 193.0 -615.5Q201 -606 217 -573L444 -112L407 -48L648 -600Q653 -612 660.5 -618.5Q668 -625 678 -625Q685 -625 695.5 -624.0Q706 -623 720 -623Q748 -623 767.0 -624.0Q786 -625 806 -625Q808 -625 808.0 -619.0Q808 -613 806 -613Q758 -613 736.0 -597.5Q714 -582 715 -541L736 -81Q738 -52 744.0 -37.0Q750 -22 767.0 -17.0Q784 -12 819 -12ZM1027 9Q976 9 946.5 -23.5Q917 -56 917 -114V-265Q917 -303 910.5 -320.0Q904 -337 887 -337Q874 -337 856 -328Q852 -326 849.5 -332.0Q847 -338 851 -339L969 -394Q971 -395 973 -395Q977 -395 981.0 -392.0Q985 -389 985 -385V-152Q985 -94 1005.5 -66.5Q1026 -39 1068 -39Q1104 -39 1139.5 -60.0Q1175 -81 1200 -115L1205 -104Q1163 -48 1119.5 -19.5Q1076 9 1027 9ZM1249 -385V-110Q1249 -76 1256.5 -61.0Q1264 -46 1282 -46Q1291 -46 1302.5 -49.5Q1314 -53 1331 -60Q1335 -62 1337.5 -56.5Q1340 -51 1337 -49L1213 10Q1211 11 1208 11Q1200 11 1190.5 -11.5Q1181 -34 1181 -76V-265Q1181 -303 1174.0 -320.0Q1167 -337 1151 -337Q1138 -337 1119 -328Q1116 -326 1113.5 -332.0Q1111 -338 1115 -339L1233 -394Q1235 -395 1237 -395Q1240 -395 1244.5 -392.0Q1249 -389 1249 -385ZM1488 -271 1482 -282Q1520 -328 1545.0 -352.0Q1570 -376 1588.0 -385.5Q1606 -395 1622 -395Q1643 -395 1664.0 -382.0Q1685 -369 1685 -349Q1685 -334 1675.0 -323.5Q1665 -313 1648 -313Q1632 -313 1622.5 -322.0Q1613 -331 1603.5 -339.5Q1594 -348 1578 -348Q1570 -348 1560.0 -343.0Q1550 -338 1533.5 -321.5Q1517 -305 1488 -271ZM1382 0Q1379 0 1379.0 -6.0Q1379 -12 1382 -12Q1418 -12 1429.5 -25.5Q1441 -39 1441 -81V-276Q1441 -308 1433.5 -323.0Q1426 -338 1408 -338Q1398 -338 1385.0 -334.5Q1372 -331 1355 -324Q1351 -322 1349.0 -327.5Q1347 -333 1350 -335L1473 -394Q1477 -395 1479 -395Q1488 -395 1499.0 -373.0Q1510 -351 1510 -310V-81Q1510 -53 1517.5 -38.0Q1525 -23 1545.5 -17.5Q1566 -12 1605 -12Q1608 -12 1608.0 -6.0Q1608 0 1605 0Q1579 0 1546.0 -1.0Q1513 -2 1476 -2Q1449 -2 1424.5 -1.0Q1400 0 1382 0ZM1757 0Q1754 0 1754.0 -6.0Q1754 -12 1757 -12Q1793 -12 1805.0 -25.5Q1817 -39 1817 -81V-265Q1817 -300 1810.0 -316.0Q1803 -332 1785 -332Q1777 -332 1766.5 -329.0Q1756 -326 1742 -319Q1738 -318 1735.5 -323.5Q1733 -329 1737 -331L1873 -394Q1876 -395 1877 -395Q1880 -395 1883.5 -392.0Q1887 -389 1887 -385Q1887 -376 1886.0 -346.0Q1885 -316 1885 -267V-81Q1885 -39 1896.5 -25.5Q1908 -12 1945 -12Q1948 -12 1948.0 -6.0Q1948 0 1945 0Q1927 0 1902.5 -1.0Q1878 -2 1851 -2Q1824 -2 1800.0 -1.0Q1776 0 1757 0ZM1845 -507Q1822 -507 1808.5 -519.5Q1795 -532 1795 -555Q1795 -577 1808.5 -589.0Q1822 -601 1845 -601Q1867 -601 1879.5 -589.0Q1892 -577 1892 -555Q1892 -507 1845 -507ZM2202 12Q2140 12 2098.0 -15.5Q2056 -43 2034.5 -87.0Q2013 -131 2013 -181Q2013 -241 2041.5 -289.5Q2070 -338 2119.0 -366.5Q2168 -395 2228 -395Q2286 -395 2317.5 -366.0Q2349 -337 2349 -281Q2349 -268 2346.5 -260.5Q2344 -253 2337 -253H2268Q2272 -313 2252.5 -344.0Q2233 -375 2194 -375Q2145 -375 2117.5 -333.0Q2090 -291 2090 -220Q2090 -163 2108.0 -119.5Q2126 -76 2161.0 -52.0Q2196 -28 2246 -28Q2279 -28 2300.5 -37.0Q2322 -46 2345 -59Q2347 -61 2350.5 -56.5Q2354 -52 2352 -49Q2316 -16 2279.0 -2.0Q2242 12 2202 12ZM2067 -252 2066 -267 2290 -271V-253ZM2427 0Q2425 0 2425.0 -6.0Q2425 -12 2427 -12Q2464 -12 2475.5 -25.5Q2487 -39 2487 -81L2488 -595Q2488 -630 2481.5 -646.0Q2475 -662 2457 -662Q2442 -662 2414 -649Q2410 -647 2407.5 -653.0Q2405 -659 2408 -660L2542 -724Q2544 -725 2546 -725Q2549 -725 2553.5 -722.0Q2558 -719 2558 -715V-81Q2558 -40 2569.0 -26.0Q2580 -12 2617 -12Q2621 -12 2621.0 -6.0Q2621 0 2617 0Q2599 0 2574.5 -1.0Q2550 -2 2522 -2Q2495 -2 2470.5 -1.0Q2446 0 2427 0Z" fill="#0d1117"/>
</svg>
