<svg width="120" height="22" viewBox="0 0 120 22" fill="none" xmlns="http://www.w3.org/2000/svg">
<path d="M8.1183 20.6277C8.2233 20.0857 8.74813 19.731 9.29018 19.8358C9.85488 19.945 10.4276 19.9998 11.0001 19.9998C11.5028 20.669 12.0598 21.2951 12.6652 21.8709C11.4196 22.0617 10.1496 22.0394 8.9103 21.7996C8.36815 21.6946 8.01338 21.1699 8.1183 20.6277ZM2.14369 15.7488C2.602 15.441 3.22333 15.5631 3.53139 16.0213C4.17509 16.9789 4.99708 17.8037 5.95229 18.451C6.40949 18.7608 6.52865 19.3824 6.21889 19.8397C5.90911 20.2968 5.28741 20.4169 4.83022 20.1072C3.66264 19.3161 2.65802 18.307 1.87123 17.1365C1.56344 16.6782 1.6855 16.0569 2.14369 15.7488ZM0.200334 8.90997C0.305258 8.36783 0.830073 8.01319 1.37221 8.11798C1.91438 8.2229 2.26904 8.74768 2.1642 9.28985C1.94562 10.4193 1.94565 11.5803 2.1642 12.7098C2.26914 13.252 1.91443 13.7767 1.37221 13.8816C0.830045 13.9865 0.305258 13.6318 0.200334 13.0897C-0.066755 11.7093 -0.0668013 10.2904 0.200334 8.90997ZM4.86342 1.87091C5.32175 1.56287 5.94301 1.68508 6.25112 2.14337C6.55905 2.60163 6.43774 3.22293 5.97963 3.53106C5.02194 4.17481 4.19625 4.99666 3.54897 5.95196C3.23914 6.40905 2.61746 6.52832 2.1603 6.21856C1.70331 5.90871 1.58398 5.28701 1.89369 4.82989C2.6848 3.66239 3.69298 2.65766 4.86342 1.87091ZM8.9103 0.200008C10.1498 -0.0398671 11.4203 -0.063148 12.6662 0.127743C12.0603 0.70375 11.5031 1.33024 11.0001 1.99981C10.4276 1.99982 9.85487 2.05459 9.29018 2.16388C8.74804 2.26866 8.22322 1.91403 8.1183 1.37188C8.01349 0.829756 8.36819 0.304977 8.9103 0.200008Z" fill="black"/>
<path d="M23 0C23.8602 0 24.6966 0.102285 25.5 0.289062C24.9426 0.835518 24.427 1.4244 23.96 2.05176C23.6445 2.01831 23.3243 2 23 2C18.0294 2 14 6.02944 14 11C14 15.9706 18.0294 20 23 20C23.3244 20 23.6445 19.9807 23.96 19.9473C24.427 20.5747 24.9426 21.1635 25.5 21.71C24.6965 21.8968 23.8603 22 23 22C16.9249 22 12 17.0751 12 11C12 4.92487 16.9249 0 23 0Z" fill="black"/>
<path d="M36 21C41.5228 21 46 16.5228 46 11C46 5.47715 41.5228 1 36 1C30.4772 1 26 5.47715 26 11C26 16.5228 30.4772 21 36 21Z" stroke="black" stroke-width="2" stroke-linecap="round" stroke-linejoin="round"/>
<path d="M36 12C36.5523 12 37 11.5523 37 11C37 10.4477 36.5523 10 36 10C35.4477 10 35 10.4477 35 11C35 11.5523 35.4477 12 36 12Z" stroke="black" stroke-width="2" stroke-linecap="round" stroke-linejoin="round"/>
<path d="M106.581 21.7238C106.287 21.7238 106.141 21.6161 106.141 21.4009C106.141 21.2247 106.268 21.1073 106.522 21.0486L106.875 20.9899C107.286 20.9116 107.55 20.7942 107.667 20.6376C107.804 20.4615 107.873 20.1679 107.873 19.7569V9.89313C107.873 9.54085 107.814 9.306 107.697 9.18858C107.599 9.05158 107.413 8.96351 107.139 8.92437L106.522 8.8363C106.268 8.81673 106.141 8.70909 106.141 8.51338C106.141 8.35681 106.297 8.24917 106.61 8.19046C107.217 8.0926 107.677 7.93603 107.99 7.72075C108.323 7.50547 108.665 7.24126 109.018 6.92813C109.194 6.75199 109.34 6.66392 109.458 6.66392C109.634 6.66392 109.722 6.78135 109.722 7.0162V8.33724C109.722 8.51338 109.781 8.6308 109.898 8.68952C110.035 8.72866 110.182 8.66995 110.339 8.51338C111.121 7.76968 111.806 7.26084 112.394 6.98684C113 6.71285 113.636 6.57585 114.302 6.57585C115.182 6.57585 115.887 6.88899 116.415 7.51526C116.944 8.12196 117.208 9.02222 117.208 10.2161V19.7569C117.208 20.1679 117.267 20.4615 117.384 20.6376C117.521 20.7942 117.795 20.9018 118.206 20.9605L118.852 21.0486C119.067 21.0877 119.175 21.2052 119.175 21.4009C119.175 21.6161 119.057 21.7238 118.823 21.7238H113.891C113.617 21.7238 113.48 21.6161 113.48 21.4009C113.48 21.2052 113.587 21.0877 113.803 21.0486L114.214 20.9899C114.625 20.9312 114.889 20.8137 115.006 20.6376C115.143 20.4615 115.212 20.1679 115.212 19.7569V10.539C115.212 9.58 115.036 8.9048 114.683 8.51338C114.331 8.12196 113.832 7.92625 113.186 7.92625C112.56 7.92625 111.992 8.11217 111.484 8.48402C110.994 8.8363 110.603 9.31579 110.309 9.92249C110.016 10.5096 109.869 11.1652 109.869 11.8894V19.7569C109.869 20.1679 109.928 20.4615 110.045 20.6376C110.182 20.8137 110.456 20.9214 110.867 20.9605L111.66 21.0486C111.875 21.0877 111.983 21.1954 111.983 21.3715C111.983 21.6064 111.836 21.7238 111.542 21.7238H106.581Z" fill="black"/>
<path d="M101.043 3.96312C100.632 3.96312 100.28 3.81634 99.9862 3.52277C99.7122 3.22921 99.5752 2.85736 99.5752 2.40723C99.5752 1.95709 99.7122 1.59503 99.9862 1.32104C100.28 1.02747 100.632 0.880692 101.043 0.880692C101.454 0.880692 101.796 1.02747 102.07 1.32104C102.344 1.59503 102.481 1.95709 102.481 2.40723C102.481 2.85736 102.344 3.22921 102.07 3.52277C101.796 3.81634 101.454 3.96312 101.043 3.96312ZM98.5771 21.7238C98.2835 21.7238 98.1367 21.6161 98.1367 21.4009C98.1367 21.2247 98.2639 21.1073 98.5184 21.0486L98.8706 20.9899C99.3599 20.9116 99.673 20.7942 99.81 20.6376C99.947 20.4615 100.016 20.1679 100.016 19.7569V9.89313C100.016 9.54085 99.9568 9.306 99.8394 9.18857C99.7415 9.05158 99.5556 8.96351 99.2816 8.92436L98.6651 8.83629C98.4107 8.81672 98.2835 8.70908 98.2835 8.51337C98.2835 8.35681 98.4401 8.24916 98.7532 8.19045C99.3599 8.0926 99.8492 7.93603 100.221 7.72075C100.593 7.50547 100.955 7.24126 101.307 6.92812C101.483 6.75199 101.63 6.66392 101.748 6.66392C101.924 6.66392 102.012 6.78134 102.012 7.01619V19.7569C102.012 20.1679 102.07 20.4615 102.188 20.6376C102.305 20.8137 102.53 20.9214 102.863 20.9605L103.597 21.0486C103.812 21.0877 103.92 21.1954 103.92 21.3715C103.92 21.6064 103.773 21.7238 103.48 21.7238H98.5771Z" fill="black"/>
<path d="M88.0253 21.988C87.2033 21.988 86.5281 21.7336 85.9997 21.2247C85.4712 20.6963 85.207 20.0015 85.207 19.1404C85.207 18.2989 85.4712 17.5062 85.9997 16.7625C86.5281 15.9993 87.2522 15.3143 88.172 14.7076C89.0919 14.1009 90.1389 13.6116 91.3132 13.2398C91.5676 13.1615 91.6948 12.9951 91.6948 12.7407V10.0693C91.6948 9.12987 91.548 8.46445 91.2545 8.07303C90.9609 7.66204 90.5597 7.45655 90.0508 7.45655C89.5616 7.45655 89.1114 7.68161 88.7005 8.13174C88.309 8.56231 88.0253 9.29622 87.8491 10.3335C87.7513 10.9598 87.536 11.4197 87.2033 11.7132C86.8901 11.9872 86.5672 12.1242 86.2345 12.1242C85.6865 12.1242 85.4125 11.8502 85.4125 11.3022C85.4125 10.7347 85.5691 10.1769 85.8822 9.62892C86.2149 9.06137 86.6455 8.55252 87.1739 8.10239C87.7023 7.63268 88.2797 7.26084 88.9059 6.98684C89.5322 6.71285 90.1585 6.57585 90.7848 6.57585C92.7223 6.57585 93.6911 7.70118 93.6911 9.95185V18.9349C93.6911 19.7569 93.8965 20.1679 94.3075 20.1679C94.562 20.1679 94.7968 20.0015 95.0121 19.6688C95.2274 19.3166 95.335 18.7294 95.335 17.9074C95.335 17.5943 95.4622 17.4377 95.7166 17.4377C95.9515 17.4377 96.0689 17.6041 96.0689 17.9368C96.0689 19.3655 95.8145 20.4027 95.3057 21.0486C94.8164 21.6749 94.2586 21.988 93.6323 21.988C93.1626 21.988 92.7908 21.8021 92.5168 21.4302C92.2428 21.0388 92.0569 20.5789 91.959 20.0505C91.9394 19.8548 91.8514 19.7569 91.6948 19.7569C91.5578 19.7373 91.4208 19.8254 91.2838 20.0211C90.8141 20.667 90.3346 21.1562 89.8454 21.4889C89.3561 21.8216 88.7494 21.988 88.0253 21.988ZM88.8179 20.6376C89.3267 20.6376 89.7964 20.4615 90.227 20.1092C90.6575 19.7373 91.0098 19.2481 91.2838 18.6414C91.5578 18.0347 91.6948 17.3497 91.6948 16.5864V14.4434C91.6948 14.0715 91.4893 13.9639 91.0783 14.1205C89.8845 14.551 88.9549 15.1479 88.2895 15.9112C87.6436 16.6549 87.3207 17.5552 87.3207 18.612C87.3207 19.9624 87.8198 20.6376 88.8179 20.6376Z" fill="black"/>
<path d="M77.1706 21.7238C76.9358 21.7238 76.8184 21.6161 76.8184 21.4009C76.8184 21.2052 76.926 21.0877 77.1413 21.0486L77.5523 20.9899C77.9633 20.9312 78.2666 20.8137 78.4623 20.6376C78.658 20.4615 78.7559 20.1679 78.7559 19.7569V2.93565C78.7559 2.58337 78.6972 2.33873 78.5797 2.20173C78.4819 2.06474 78.296 1.98645 78.022 1.96688L77.3468 1.87881C77.1315 1.83967 77.0239 1.72225 77.0239 1.52654C77.0239 1.33083 77.1315 1.2134 77.3468 1.17426C77.8948 1.05683 78.3645 0.919835 78.7559 0.763267C79.1473 0.606699 79.4702 0.450131 79.7246 0.293564C80.0378 0.0978548 80.2726 0 80.4292 0C80.6445 0 80.7521 0.156568 80.7521 0.469703V19.7569C80.7521 20.1679 80.8108 20.4615 80.9283 20.6376C81.0653 20.7942 81.3393 20.9018 81.7502 20.9605L82.4254 21.0486C82.6407 21.0877 82.7484 21.2052 82.7484 21.4009C82.7484 21.6161 82.6309 21.7238 82.3961 21.7238H77.1706Z" fill="black"/>
<path d="M62.4403 21.7238C62.1468 21.7238 62 21.6162 62 21.4009C62 21.2247 62.1272 21.1073 62.3816 21.0486L63.0568 20.9312C63.4678 20.8529 63.732 20.7453 63.8495 20.6083C63.9865 20.4713 64.055 20.1973 64.055 19.7863V2.52467C64.055 2.11368 63.9865 1.83969 63.8495 1.70269C63.732 1.56569 63.4678 1.45805 63.0568 1.37977L62.3816 1.26234C62.1272 1.20363 62 1.0862 62 0.910063C62 0.694783 62.1468 0.587143 62.4403 0.587143H68.5758C69.7305 0.587143 70.7482 0.841566 71.6289 1.35041C72.5096 1.83969 73.1946 2.52467 73.6839 3.40536C74.1731 4.28606 74.4178 5.30375 74.4178 6.45844C74.4178 7.57398 74.1731 8.56232 73.6839 9.42344C73.1946 10.2846 72.5194 10.9598 71.6583 11.449C70.7972 11.9187 69.799 12.1536 68.6639 12.1536H66.5503C66.2763 12.1536 66.1393 12.2906 66.1393 12.5646V19.6688C66.1393 20.0798 66.2175 20.3636 66.3741 20.5202C66.5307 20.6572 66.883 20.7746 67.4309 20.8725L68.5171 21.0486C68.7324 21.0877 68.8401 21.1954 68.8401 21.3715C68.8401 21.6064 68.6933 21.7238 68.3997 21.7238H62.4403ZM66.1393 9.80507C66.1393 10.8815 66.7949 11.4197 68.1061 11.4197C69.3783 11.4197 70.3764 10.9695 71.1005 10.0693C71.8442 9.16902 72.2161 7.93605 72.2161 6.37037C72.2161 4.76555 71.8442 3.52279 71.1005 2.6421C70.3568 1.7614 69.3 1.32105 67.93 1.32105C66.7362 1.32105 66.1393 1.71247 66.1393 2.49531V9.80507Z" fill="black"/>
</svg>
